<svg xmlns="http://www.w3.org/2000/svg" width="284.4" height="284.4" viewBox="0 0 284.4 284.4">
  <g>
    <g>
      <ellipse cx="142.2" cy="142.2" rx="132.82" ry="132.74" fill="#fff"/>
      <path d="M142.2,284.4C63.79,284.4,0,220.61,0,142.2S63.79,0,142.2,0,284.4,63.79,284.4,142.2,220.61,284.4,142.2,284.4Zm0-265.48c-68.06,0-123.43,55.3-123.43,123.28S74.14,265.48,142.2,265.48s123.43-55.3,123.43-123.28S210.26,18.92,142.2,18.92Z" fill="#8dc63f"/>
    </g>
    <g>
      <path d="M158.1,167.35c8.51,21.35,17.75,42.64,29.24,63.89a14.57,14.57,0,0,0,21.18,5,115.81,115.81,0,0,0,29.62-30.46,14.55,14.55,0,0,0-8-21.9C207.51,177,186.5,168.56,166,159.67A6,6,0,0,0,158.1,167.35Z" fill="#f3bd48"/>
      <path d="M169.56,149.38c21.53,9.33,43.55,18.1,67.39,25a14.64,14.64,0,0,0,18.47-11.49,116,116,0,0,0-.38-43.37,14.6,14.6,0,0,0-21.13-10c-21.44,11.32-42.83,20.44-64.18,28.87A6,6,0,0,0,169.56,149.38Z" fill="#f09f53"/>
      <path d="M147.55,170.21a6,6,0,0,0-11-.17c-9.31,21.46-18.08,43.39-25,67.12a14.61,14.61,0,0,0,11.61,18.49,116.09,116.09,0,0,0,43-.93,14.61,14.61,0,0,0,10-21.09C165,212.45,155.91,191.31,147.55,170.21Z" fill="#ecdc13"/>
      <path d="M137.89,115.16a6,6,0,0,0,11,.16c9.41-21.68,18.24-43.86,25.17-67.89A14.63,14.63,0,0,0,162.56,29a116,116,0,0,0-43.73.58,14.6,14.6,0,0,0-10,21.11C120.22,72.21,129.4,93.71,137.89,115.16Z" fill="#a95a96"/>
      <path d="M53.31,102.24c23.64,7.11,45.49,15.94,66.82,25.24a6,6,0,0,0,7.92-7.67c-8.86-22.37-18.46-44.68-30.55-67a14.6,14.6,0,0,0-21.18-5A115.83,115.83,0,0,0,45.1,80.44,14.6,14.6,0,0,0,53.31,102.24Z" fill="#2b8ec1"/>
      <path d="M126.45,166a6,6,0,0,0-7.68-7.92c-21.81,8.66-43.57,18-65.28,29.77a14.57,14.57,0,0,0-4.92,21.26,115.9,115.9,0,0,0,31.55,30A14.57,14.57,0,0,0,101.89,231C108.84,208,117.42,186.75,126.45,166Z" fill="#add14c"/>
      <path d="M158.67,120.12a6,6,0,0,0,7.68,7.91c21.92-8.7,43.79-18.14,65.62-30A14.58,14.58,0,0,0,237,77a115.82,115.82,0,0,0-31.49-30.84,14.57,14.57,0,0,0-21.92,8C176.56,77.46,167.84,99.05,158.67,120.12Z" fill="#e74253"/>
      <path d="M114.82,137c-21.64-9.37-43.76-18.19-67.7-25.11a14.61,14.61,0,0,0-18.49,11.63,116.11,116.11,0,0,0,1.21,43.65,14.56,14.56,0,0,0,21,9.58c21.3-11.25,42.57-20.33,63.79-28.73A6,6,0,0,0,114.82,137Z" fill="#01b699"/>
    </g>
  </g>
</svg>
